<svg width="133" height="118" viewBox="0 0 133 118" fill="none" xmlns="http://www.w3.org/2000/svg">
<path d="M96.9791 0.623383C84.2934 0.820804 72.6437 7.81058 66.5 18.9109C60.3563 7.81058 48.7066 0.820804 36.0209 0.623383C15.449 1.51724 -0.776442 19.1156 -2.35438e-06 39.6921C-2.35438e-06 64.8902 26.5223 92.41 48.7666 111.069C58.9772 119.649 74.0228 119.649 84.2334 111.069C106.478 92.41 133 64.8902 133 39.6921C133.776 19.1156 117.551 1.51724 96.9791 0.623383ZM77.1122 102.59C71.0051 107.733 61.9949 107.733 55.8878 102.59C27.4146 78.6998 11.0834 55.7797 11.0834 39.6921C10.3 25.1923 21.527 12.5931 36.0209 11.7068C50.5145 12.5931 61.7416 25.1923 60.9584 39.6921C60.9584 42.7322 63.46 45.2337 66.5 45.2337C69.54 45.2337 72.0416 42.7322 72.0416 39.6921C71.2584 25.1923 82.4855 12.5931 96.9791 11.7068C111.473 12.5931 122.7 25.1923 121.917 39.6921C121.917 55.7797 105.585 78.6998 77.1122 102.568V102.59Z" fill="#FFFDFF"/>
</svg>
